<svg width="169" height="96" viewBox="0 0 169 96" fill="none" xmlns="http://www.w3.org/2000/svg">
<path d="M111.688 76.36C112.664 76.568 113.448 77.056 114.04 77.824C114.632 78.576 114.928 79.44 114.928 80.416C114.928 81.824 114.432 82.944 113.44 83.776C112.464 84.592 111.096 85 109.336 85H101.488V68.152H109.072C110.784 68.152 112.12 68.544 113.08 69.328C114.056 70.112 114.544 71.176 114.544 72.52C114.544 73.512 114.28 74.336 113.752 74.992C113.24 75.648 112.552 76.104 111.688 76.36ZM105.592 74.968H108.28C108.952 74.968 109.464 74.824 109.816 74.536C110.184 74.232 110.368 73.792 110.368 73.216C110.368 72.64 110.184 72.2 109.816 71.896C109.464 71.592 108.952 71.44 108.28 71.44H105.592V74.968ZM108.616 81.688C109.304 81.688 109.832 81.536 110.2 81.232C110.584 80.912 110.776 80.456 110.776 79.864C110.776 79.272 110.576 78.808 110.176 78.472C109.792 78.136 109.256 77.968 108.568 77.968H105.592V81.688H108.616ZM123.404 85.192C122.092 85.192 120.908 84.912 119.852 84.352C118.812 83.792 117.988 82.992 117.38 81.952C116.788 80.912 116.492 79.696 116.492 78.304C116.492 76.928 116.796 75.72 117.404 74.68C118.012 73.624 118.844 72.816 119.9 72.256C120.956 71.696 122.14 71.416 123.452 71.416C124.764 71.416 125.948 71.696 127.004 72.256C128.06 72.816 128.892 73.624 129.5 74.68C130.108 75.72 130.412 76.928 130.412 78.304C130.412 79.68 130.1 80.896 129.476 81.952C128.868 82.992 128.028 83.792 126.956 84.352C125.9 84.912 124.716 85.192 123.404 85.192ZM123.404 81.64C124.188 81.64 124.852 81.352 125.396 80.776C125.956 80.2 126.236 79.376 126.236 78.304C126.236 77.232 125.964 76.408 125.42 75.832C124.892 75.256 124.236 74.968 123.452 74.968C122.652 74.968 121.988 75.256 121.46 75.832C120.932 76.392 120.668 77.216 120.668 78.304C120.668 79.376 120.924 80.2 121.436 80.776C121.964 81.352 122.62 81.64 123.404 81.64ZM136.43 81.616H142.238V85H131.846V81.736L137.414 74.992H131.894V71.608H142.118V74.872L136.43 81.616ZM150.592 85.192C149.28 85.192 148.096 84.912 147.04 84.352C146 83.792 145.176 82.992 144.568 81.952C143.976 80.912 143.68 79.696 143.68 78.304C143.68 76.928 143.984 75.72 144.592 74.68C145.2 73.624 146.032 72.816 147.088 72.256C148.144 71.696 149.328 71.416 150.64 71.416C151.952 71.416 153.136 71.696 154.192 72.256C155.248 72.816 156.08 73.624 156.688 74.68C157.296 75.72 157.6 76.928 157.6 78.304C157.6 79.68 157.288 80.896 156.664 81.952C156.056 82.992 155.216 83.792 154.144 84.352C153.088 84.912 151.904 85.192 150.592 85.192ZM150.592 81.64C151.376 81.64 152.04 81.352 152.584 80.776C153.144 80.2 153.424 79.376 153.424 78.304C153.424 77.232 153.152 76.408 152.608 75.832C152.08 75.256 151.424 74.968 150.64 74.968C149.84 74.968 149.176 75.256 148.648 75.832C148.12 76.392 147.856 77.216 147.856 78.304C147.856 79.376 148.112 80.2 148.624 80.776C149.152 81.352 149.808 81.64 150.592 81.64ZM163.881 73.84C164.361 73.104 164.961 72.528 165.681 72.112C166.401 71.68 167.201 71.464 168.081 71.464V75.808H166.953C165.929 75.808 165.161 76.032 164.649 76.48C164.137 76.912 163.881 77.68 163.881 78.784V85H159.777V71.608H163.881V73.84Z" fill="url(#paint0_linear_185_146)"/>
<path d="M92.1691 47.606C92.1691 47.606 92.3454 55.7001 91.0796 63.1576C88.8737 76.1592 91.6881 83.9126 94.9842 87.9933C95.5229 88.6601 82.1288 91.4697 81.0084 69.2156C80.0781 50.7277 80.6558 47.2374 80.6558 47.2374L86.7541 43.4496L92.1691 47.606Z" fill="url(#paint1_linear_185_146)"/>
<path d="M45.4366 61.3241C45.6251 62.5341 54.1422 81.189 57.8341 82.7081C62.1687 84.4915 67.7755 69.2992 65.9028 59.4101C63.5791 47.1386 54.4242 38.6357 54.4242 38.6357C54.4242 38.6357 42.6149 43.2526 45.4366 61.3241Z" fill="url(#paint2_linear_185_146)"/>
<path d="M27.9003 86.0247C25.4938 79.1784 23.565 61.6919 29.3522 46.3891C30.0988 44.4952 34.3911 31.8721 46.5903 33.9244C51.6861 34.7821 54.4249 38.6357 54.4249 38.6357C54.4249 38.6357 42.6766 43.87 45.5739 62.2707C48.2087 79.0007 47.0729 85.8763 38.8532 89.0228C33.9572 90.8974 28.8038 88.5947 27.9003 86.0247Z" fill="url(#paint3_linear_185_146)"/>
<path d="M56.2717 81.4286C56.2717 81.4286 67.2329 78.3802 65.2845 56.7203C63.6669 38.7277 74.8059 31.6249 80.8426 31.6249C83.3946 31.6249 92.4797 33.1633 92.1686 47.6054C92.1588 48.0759 82.8446 43.7364 81.0945 50.0827C79.2607 56.7327 81.6511 73.5879 71.4447 84.9514C65.4072 91.6763 56.2717 81.4286 56.2717 81.4286Z" fill="url(#paint4_linear_185_146)"/>
<path d="M82.9348 28.1731H19.2093V93.396H82.9348L13.6082 96V25.3318L82.9348 28.1731Z" fill="#1A1A1A"/>
<path d="M5.64282 88.6024L11.9906 92.6267V28.7056L5.64282 88.6024Z" fill="#585858"/>
<path d="M3.73412 82.9792L0 75.2853L9.21018 31.6054L3.73412 82.9792Z" fill="#828283"/>
<path d="M22.0813 24.3057C22.0813 24.3057 24.9794 6.79523 39.257 6.70791C52.1184 6.62909 54.2755 24.3057 54.2755 24.3057C54.2755 24.3057 52.5628 3.54287 39.257 3.5506C24.3635 3.55987 22.0813 24.3057 22.0813 24.3057Z" fill="#828283"/>
<path d="M33.7712 20.7551C33.7712 20.7551 36.6693 3.24463 50.9469 3.15731C63.8083 3.0785 65.9654 20.7551 65.9654 20.7551C65.9654 20.7551 64.2528 -0.00772499 50.9469 2.15628e-06C36.0535 0.00850202 33.7712 20.7551 33.7712 20.7551Z" fill="#1A1A1A"/>
<defs>
<linearGradient id="paint0_linear_185_146" x1="134.5" y1="59" x2="134.5" y2="95" gradientUnits="userSpaceOnUse">
<stop stop-color="#1D1D1D"/>
<stop offset="1" stop-color="#1D1D1D" stop-opacity="0.44"/>
</linearGradient>
<linearGradient id="paint1_linear_185_146" x1="87.9935" y1="80.417" x2="87.2864" y2="53.258" gradientUnits="userSpaceOnUse">
<stop offset="0.0915" stop-color="#E64D5D"/>
<stop offset="0.1794" stop-color="#D64257"/>
<stop offset="0.4354" stop-color="#AB2747"/>
<stop offset="0.6665" stop-color="#8C133C"/>
<stop offset="0.8625" stop-color="#7A0635"/>
<stop offset="1" stop-color="#730232"/>
</linearGradient>
<linearGradient id="paint2_linear_185_146" x1="55.9394" y1="70.3398" x2="55.4874" y2="52.9766" gradientUnits="userSpaceOnUse">
<stop stop-color="#6E0034"/>
<stop offset="0.3295" stop-color="#760037"/>
<stop offset="0.8381" stop-color="#8C013D"/>
<stop offset="1" stop-color="#940140"/>
</linearGradient>
<linearGradient id="paint3_linear_185_146" x1="40.4029" y1="68.6462" x2="39.9501" y2="51.2514" gradientUnits="userSpaceOnUse">
<stop offset="3.40978e-07" stop-color="#C3291F"/>
<stop offset="0.305" stop-color="#C82924"/>
<stop offset="0.6794" stop-color="#D72932"/>
<stop offset="1" stop-color="#EA2944"/>
</linearGradient>
<linearGradient id="paint4_linear_185_146" x1="74.293" y1="66.315" x2="73.8445" y2="49.088" gradientUnits="userSpaceOnUse">
<stop offset="3.40978e-07" stop-color="#C3291F"/>
<stop offset="0.305" stop-color="#C82924"/>
<stop offset="0.6794" stop-color="#D72932"/>
<stop offset="1" stop-color="#EA2944"/>
</linearGradient>
</defs>
</svg>
