<svg width="20" height="20" viewBox="0 0 20 20" fill="none" xmlns="http://www.w3.org/2000/svg">
<path d="M11.5625 1.25H19.0625C19.5803 1.25 20 1.66973 20 2.1875V8.4375C20 8.95527 19.5803 9.375 19.0625 9.375H11.5625C11.0447 9.375 10.625 8.95527 10.625 8.4375V2.1875C10.625 1.66973 11.0447 1.25 11.5625 1.25ZM8.4375 1.25H0.9375C0.419727 1.25 0 1.66973 0 2.1875V8.4375C0 8.95527 0.419727 9.375 0.9375 9.375H8.4375C8.95527 9.375 9.375 8.95527 9.375 8.4375V2.1875C9.375 1.66973 8.95527 1.25 8.4375 1.25ZM0 11.5625V17.8125C0 18.3303 0.419727 18.75 0.9375 18.75H8.4375C8.95527 18.75 9.375 18.3303 9.375 17.8125V11.5625C9.375 11.0447 8.95527 10.625 8.4375 10.625H0.9375C0.419727 10.625 0 11.0447 0 11.5625ZM11.5625 18.75H19.0625C19.5803 18.75 20 18.3303 20 17.8125V11.5625C20 11.0447 19.5803 10.625 19.0625 10.625H11.5625C11.0447 10.625 10.625 11.0447 10.625 11.5625V17.8125C10.625 18.3303 11.0447 18.75 11.5625 18.75Z" fill="url(#paint0_linear_185_144)"/>
<defs>
<linearGradient id="paint0_linear_185_144" x1="10" y1="1.25" x2="10" y2="18.75" gradientUnits="userSpaceOnUse">
<stop stop-color="#1D1D1D"/>
<stop offset="1" stop-color="#1D1D1D" stop-opacity="0.5"/>
</linearGradient>
</defs>
</svg>
