<svg width="282" height="222" viewBox="0 0 282 222" fill="none" xmlns="http://www.w3.org/2000/svg">
<path d="M130.291 209.175C137.952 208.128 145.317 207.237 152.387 206.504L149.668 201.723C150.613 201.447 154.706 204.214 154.706 204.214L151.249 190.388C155.974 190.944 158.171 205.046 158.171 205.046L163.528 200.349L160.889 205.669C182.525 203.687 201.194 203.077 216.887 203.229L214.559 199.137C215.504 198.861 219.597 201.629 219.597 201.629L216.14 187.803C220.865 188.358 223.062 202.461 223.062 202.461L228.419 197.764L225.624 203.398C238.776 203.782 249.493 204.695 257.76 205.69C255.438 199.331 247.322 193.214 247.322 193.214C253.564 194.923 256.811 197.702 258.491 200.278C258.825 187.111 256.529 174.017 251.75 161.836C251.75 161.836 264.336 186.727 262.436 203.315L262.194 206.262C273.155 207.77 278.655 209.27 278.655 209.27L130.291 209.175Z" fill="#FF1111"/>
<path d="M141 222C218.872 222 282 216.852 282 210.502C282 204.151 218.872 199.003 141 199.003C63.1279 199.003 0 204.151 0 210.502C0 216.852 63.1279 222 141 222Z" fill="#1D1D1D"/>
<path d="M144.525 26.5287C144.525 26.5287 147.658 34.3312 140.608 38.0271C133.558 41.7229 159.408 48.7041 162.15 39.6697C162.15 39.6697 155.1 36.7951 158.233 28.1714L144.525 26.5287Z" fill="#FFB9B9"/>
<path d="M152.946 187.71L152.554 196.334L159.212 197.566V188.942L152.946 187.71Z" fill="#FFB9B9"/>
<path d="M127.879 187.71L128.271 196.334L121.613 197.566V188.942L127.879 187.71Z" fill="#FFB9B9"/>
<path d="M152.162 31.2513C158.219 31.2513 163.129 26.1033 163.129 19.753C163.129 13.4026 158.219 8.25465 152.162 8.25465C146.106 8.25465 141.196 13.4026 141.196 19.753C141.196 26.1033 146.106 31.2513 152.162 31.2513Z" fill="#FFB9B9"/>
<path d="M167.438 103.116L167.046 106.401L169.004 114.203L171.746 107.222L167.438 103.116Z" fill="#FFB9B9"/>
<path d="M123.963 104.348L121.613 133.504C121.613 133.504 118.871 138.843 120.438 143.36C120.438 143.36 118.088 149.52 118.871 151.573C119.654 153.626 120.046 155.679 119.263 156.501C118.479 157.322 118.088 180.319 119.263 182.372C120.438 184.425 121.221 189.353 121.221 189.353C121.221 189.353 127.879 190.996 129.446 186.478C131.013 181.961 130.229 181.551 131.796 180.319C133.363 179.087 133.363 161.839 133.363 161.839C133.363 161.839 131.404 159.786 132.579 158.965C133.754 158.143 134.538 158.965 133.363 156.911C132.188 154.858 130.229 154.858 132.188 154.037C133.279 153.593 134.328 153.043 135.321 152.394L146.679 121.184C146.679 121.184 150.988 156.09 151.771 157.733C152.554 159.375 153.729 157.322 152.554 159.375C151.379 161.429 150.988 160.197 151.379 161.429C151.771 162.661 149.029 180.319 150.596 184.015C151.51 186.151 152.295 188.345 152.946 190.585C152.946 190.585 159.213 193.46 159.996 191.406C160.779 189.353 160.388 185.657 161.563 185.246C162.738 184.836 163.913 184.015 163.913 180.729C163.913 177.444 166.263 161.429 166.263 161.429C166.263 161.429 163.521 160.197 164.304 158.143C165.088 156.09 165.088 156.501 164.696 154.858C164.304 153.215 163.521 152.805 164.304 151.573C165.088 150.341 165.088 146.645 165.088 146.645L169.788 114.203L166.158 103.116L123.963 104.348Z" fill="#1D1D1D"/>
<path d="M153.337 194.281C153.337 194.281 152.162 193.049 151.771 194.281C151.379 195.513 151.379 207.011 151.379 207.011C151.379 207.011 154.512 209.475 154.512 210.707C154.512 211.939 156.862 216.045 162.346 215.224C162.401 215.216 162.455 215.207 162.509 215.198C163.302 215.063 164.055 214.737 164.708 214.244C165.361 213.752 165.895 213.106 166.269 212.36C166.643 211.614 166.846 210.786 166.863 209.943C166.879 209.1 166.709 208.265 166.364 207.503L160.779 195.102C160.779 195.102 156.862 190.996 153.337 194.281Z" fill="#FF1111"/>
<path d="M127.488 194.281C127.488 194.281 128.663 193.049 129.054 194.281C129.446 195.513 129.446 207.011 129.446 207.011C129.446 207.011 126.313 209.475 126.313 210.707C126.313 211.939 123.963 216.045 118.479 215.224C118.424 215.216 118.37 215.207 118.316 215.198C117.523 215.063 116.77 214.737 116.117 214.244C115.464 213.752 114.93 213.106 114.556 212.36C114.182 211.614 113.979 210.786 113.962 209.943C113.946 209.1 114.116 208.265 114.461 207.503L120.046 195.102C120.046 195.102 123.963 190.996 127.488 194.281Z" fill="#FF1111"/>
<path d="M143.804 7.29844L141.845 6.47598C141.845 6.47598 145.942 1.74689 151.642 2.15813L150.039 0.307593C150.039 0.307593 153.957 -1.33729 157.52 2.98056C159.393 5.25037 161.559 7.9184 162.91 10.9239H165.009L164.133 12.9458L167.198 14.9676L164.052 14.6044C164.35 16.35 164.248 18.1447 163.754 19.8408L163.839 21.4389C163.839 21.4389 160.192 15.5229 160.192 14.7005V16.7566C160.192 16.7566 158.232 14.9061 158.232 13.6724L157.164 15.1117L156.629 12.85L150.039 15.1117L151.107 13.2612L147.01 13.878L148.614 11.6163C148.614 11.6163 143.982 14.2892 143.804 16.551C143.626 18.8127 141.31 21.6913 141.31 21.6913L140.242 19.6352C140.242 19.6352 138.639 10.3826 143.804 7.29844Z" fill="#1D1D1D"/>
<path d="M169.004 45.2135H173.368C173.688 45.2133 174 45.3276 174.25 45.5375C174.5 45.7474 174.675 46.0404 174.746 46.3684C175.419 49.4946 177.154 58.3564 176.837 65.3355C176.446 73.9593 177.229 80.1191 176.837 81.351C176.446 82.583 176.837 82.9937 176.837 84.2256C176.837 85.4576 178.012 84.6363 176.837 86.2789C175.662 87.9215 175.662 87.5109 175.662 88.7428C175.662 89.9748 171.746 108.865 171.746 108.865C171.746 108.865 169.053 104.225 166.091 105.108L166.654 88.3322L167.437 81.3511L166.262 69.0314L169.004 45.2135Z" fill="#1D1D1D"/>
<path d="M150.008 40.9016C150.008 40.9016 143.35 40.6479 141.196 37.6949C141.196 37.6949 127.292 42.5442 125.725 46.6508C124.158 50.7573 131.208 69.2367 131.208 69.2367C131.208 69.2367 119.067 107.017 124.942 107.017C130.817 107.017 144.133 111.945 151.967 109.07C156.821 107.305 161.796 105.932 166.85 104.964C166.85 104.964 167.633 93.876 166.85 91.8227C166.067 89.7694 164.108 91.0014 165.283 88.1268C166.458 85.2522 166.067 84.8416 165.675 83.6096C165.283 82.3777 166.458 80.7351 166.458 79.0924C166.458 77.4498 166.067 73.7539 166.067 73.7539C166.067 73.7539 176.642 47.8828 174.292 45.4188C171.942 42.9549 159.98 38.2074 159.98 38.2074C159.98 38.2074 156.667 42.5442 150.008 40.9016Z" fill="#1D1D1D"/>
<path d="M238.133 166.151C242.892 166.151 246.75 162.106 246.75 157.117C246.75 152.127 242.892 148.082 238.133 148.082C233.374 148.082 229.517 152.127 229.517 157.117C229.517 162.106 233.374 166.151 238.133 166.151Z" fill="#FF1111"/>
<path d="M232.258 161.634C233.34 161.634 234.217 159.611 234.217 157.117C234.217 154.622 233.34 152.599 232.258 152.599C231.177 152.599 230.3 154.622 230.3 157.117C230.3 159.611 231.177 161.634 232.258 161.634Z" fill="white"/>
<path d="M210.325 108.249C215.084 108.249 218.942 104.204 218.942 99.2145C218.942 94.2249 215.084 90.1801 210.325 90.1801C205.566 90.1801 201.708 94.2249 201.708 99.2145C201.708 104.204 205.566 108.249 210.325 108.249Z" fill="#1D1D1D"/>
<path d="M208.027 95.8888C209.954 94.4253 211.002 92.4944 210.368 91.576C209.733 90.6577 207.657 91.0996 205.73 92.5631C203.803 94.0266 202.755 95.9575 203.39 96.8759C204.024 97.7943 206.1 97.3523 208.027 95.8888Z" fill="white"/>
<path d="M232.258 55.1556C235.224 55.1556 237.628 52.6348 237.628 49.5254C237.628 46.4159 235.224 43.8952 232.258 43.8952C229.293 43.8952 226.888 46.4159 226.888 49.5254C226.888 52.6348 229.293 55.1556 232.258 55.1556Z" fill="#1D1D1D"/>
<path d="M230.827 47.4528C232.027 46.5408 232.68 45.3374 232.285 44.7651C231.89 44.1928 230.596 44.4682 229.395 45.3803C228.194 46.2923 227.541 47.4957 227.936 48.068C228.332 48.6403 229.626 48.3649 230.827 47.4528Z" fill="white"/>
<path d="M191.917 200.116C194.882 200.116 197.287 197.596 197.287 194.486C197.287 191.377 194.882 188.856 191.917 188.856C188.951 188.856 186.547 191.377 186.547 194.486C186.547 197.596 188.951 200.116 191.917 200.116Z" fill="#1D1D1D"/>
<path d="M190.485 192.414C191.686 191.502 192.339 190.298 191.943 189.726C191.548 189.154 190.254 189.429 189.053 190.341C187.852 191.253 187.199 192.456 187.594 193.029C187.99 193.601 189.284 193.326 190.485 192.414Z" fill="white"/>
<path d="M237.35 125.086C242.109 125.086 245.967 121.041 245.967 116.051C245.967 111.062 242.109 107.017 237.35 107.017C232.591 107.017 228.733 111.062 228.733 116.051C228.733 121.041 232.591 125.086 237.35 125.086Z" fill="#1D1D1D"/>
<path d="M231.475 120.568C232.556 120.568 233.433 118.546 233.433 116.051C233.433 113.557 232.556 111.534 231.475 111.534C230.393 111.534 229.517 113.557 229.517 116.051C229.517 118.546 230.393 120.568 231.475 120.568Z" fill="white"/>
<path d="M209.542 67.1835C214.301 67.1835 218.158 63.1387 218.158 58.1491C218.158 53.1595 214.301 49.1147 209.542 49.1147C204.783 49.1147 200.925 53.1595 200.925 58.1491C200.925 63.1387 204.783 67.1835 209.542 67.1835Z" fill="#FF1111"/>
<path d="M207.244 54.8234C209.171 53.3599 210.219 51.429 209.584 50.5106C208.95 49.5923 206.873 50.0342 204.946 51.4977C203.019 52.9613 201.972 54.8922 202.606 55.8105C203.241 56.7289 205.317 56.287 207.244 54.8234Z" fill="white"/>
<path d="M231.475 14.0902C234.441 14.0902 236.845 11.5694 236.845 8.45998C236.845 5.35051 234.441 2.82978 231.475 2.82978C228.509 2.82978 226.105 5.35051 226.105 8.45998C226.105 11.5694 228.509 14.0902 231.475 14.0902Z" fill="#FF1111"/>
<path d="M230.043 6.38744C231.244 5.47538 231.897 4.27206 231.502 3.69974C231.106 3.12741 229.812 3.40282 228.611 4.31488C227.41 5.22694 226.757 6.43027 227.153 7.0026C227.548 7.57492 228.842 7.2995 230.043 6.38744Z" fill="white"/>
<path d="M191.133 159.051C194.099 159.051 196.503 156.53 196.503 153.421C196.503 150.311 194.099 147.791 191.133 147.791C188.168 147.791 185.763 150.311 185.763 153.421C185.763 156.53 188.168 159.051 191.133 159.051Z" fill="#1D1D1D"/>
<path d="M189.701 151.348C190.902 150.436 191.555 149.233 191.16 148.661C190.765 148.088 189.47 148.364 188.27 149.276C187.069 150.188 186.416 151.391 186.811 151.963C187.207 152.536 188.501 152.26 189.701 151.348Z" fill="white"/>
<path d="M128.075 116.435H19.5833V185.478H128.075V116.435Z" fill="#F2F2F2"/>
<path d="M119.262 107.222C119.262 107.222 115.737 126.523 121.612 124.88C127.487 123.238 124.746 107.222 124.746 107.222H119.262Z" fill="#FFB9B9"/>
<path d="M128.271 45.2135L126.88 45.9427C126.338 46.2266 125.867 46.638 125.502 47.1447C125.138 47.6514 124.89 48.2397 124.778 48.8635L119.262 79.7084C119.262 79.7084 117.696 83.4043 117.696 83.815C117.696 84.2256 118.479 84.2256 117.696 85.4576C116.912 86.6896 115.737 86.2789 116.521 87.1002C116.968 87.5264 117.247 88.1121 117.304 88.7428L118.087 108.865C118.087 108.865 124.746 106.812 126.704 108.865C126.704 108.865 124.746 102.705 125.921 100.652C127.096 98.5985 127.096 95.7239 127.096 95.7239C127.096 95.7239 126.312 95.7239 128.271 93.6706C130.229 91.6174 130.621 90.7961 130.229 90.3854C129.837 89.9748 129.446 86.2789 129.446 85.8682C129.446 85.4576 133.362 57.9438 133.362 57.9438L128.271 45.2135Z" fill="#1D1D1D"/>
<path d="M75.1786 174.16C88.2951 174.16 98.928 163.011 98.928 149.259C98.928 135.507 88.2951 124.358 75.1786 124.358C62.0622 124.358 51.4292 135.507 51.4292 149.259C51.4292 163.011 62.0622 174.16 75.1786 174.16Z" fill="#FF1111"/>
<path d="M95.8582 164.893C91.2983 164.893 81.2288 159.983 72.2735 154.232C61.1607 147.095 50.368 137.767 52.2548 134.537C52.7881 133.624 54.11 133.386 56.2966 133.807L56.1398 134.702C54.4465 134.375 53.3007 134.489 52.9949 135.012C52.5488 135.776 53.5323 137.992 57.6298 141.923C61.3638 145.506 66.7254 149.602 72.7269 153.456C78.7282 157.31 84.6441 160.457 89.3845 162.317C94.5863 164.358 96.9163 164.269 97.3621 163.506C97.6683 162.982 97.2429 161.858 96.1947 160.423L96.8837 159.87C98.2372 161.723 98.6358 163.068 98.1022 163.981C97.7358 164.608 96.9569 164.893 95.8582 164.893Z" fill="#1D1D1D"/>
<path d="M72.247 141.553C74.9299 141.553 77.1048 139.273 77.1048 136.46C77.1048 133.647 74.9299 131.367 72.247 131.367C69.5641 131.367 67.3892 133.647 67.3892 136.46C67.3892 139.273 69.5641 141.553 72.247 141.553Z" fill="white"/>
<path d="M73.6541 167.777C75.4427 167.777 76.8926 166.257 76.8926 164.381C76.8926 162.506 75.4427 160.986 73.6541 160.986C71.8655 160.986 70.4155 162.506 70.4155 164.381C70.4155 166.257 71.8655 167.777 73.6541 167.777Z" fill="white"/>
<path d="M84.8062 156.136C86.5948 156.136 88.0448 154.616 88.0448 152.74C88.0448 150.865 86.5948 149.345 84.8062 149.345C83.0176 149.345 81.5676 150.865 81.5676 152.74C81.5676 154.616 83.0176 156.136 84.8062 156.136Z" fill="white"/>
<path d="M22.8774 112.549C22.1152 111.867 21.2325 111.35 20.2796 111.026C19.3267 110.702 18.3222 110.578 17.3236 110.661C16.325 110.744 15.3518 111.033 14.4596 111.51C13.5673 111.988 12.7735 112.645 12.1234 113.444C11.4734 114.243 10.9798 115.168 10.6709 116.167C10.3619 117.167 10.2437 118.22 10.323 119.267C10.4022 120.314 10.6774 121.334 11.1328 122.27C11.5882 123.205 12.2148 124.037 12.977 124.719L24.5844 135.099L34.4848 122.929C35.7977 121.315 36.4453 119.221 36.2853 117.106C36.1252 114.992 35.1705 113.03 33.6313 111.654C32.0921 110.277 30.0943 109.598 28.0776 109.766C26.0608 109.934 24.1902 110.935 22.8774 112.549Z" fill="#FF1111"/>
</svg>
