<svg width="47" height="47" viewBox="0 0 25 25" fill="#000" xmlns="http://www.w3.org/2000/svg">
<path d="M12.5 0.390625C5.59476 0.390625 0 5.81055 0 12.5C0 19.1895 5.59476 24.6094 12.5 24.6094C19.4052 24.6094 25 19.1895 25 12.5C25 5.81055 19.4052 0.390625 12.5 0.390625ZM12.5 5.07812C14.9496 5.07812 16.9355 7.00195 16.9355 9.375C16.9355 11.748 14.9496 13.6719 12.5 13.6719C10.0504 13.6719 8.06452 11.748 8.06452 9.375C8.06452 7.00195 10.0504 5.07812 12.5 5.07812ZM12.5 21.875C9.54133 21.875 6.89012 20.5762 5.11593 18.5449C6.06351 16.8164 7.91835 15.625 10.0806 15.625C10.2016 15.625 10.3226 15.6445 10.4385 15.6787C11.0938 15.8838 11.7792 16.0156 12.5 16.0156C13.2208 16.0156 13.9113 15.8838 14.5615 15.6787C14.6774 15.6445 14.7984 15.625 14.9194 15.625C17.0817 15.625 18.9365 16.8164 19.8841 18.5449C18.1099 20.5762 15.4587 21.875 12.5 21.875Z" fill="#ffff"/>
</svg>
